<svg version="1.1" id="Layer_1"  xmlns="http://www.w3.org/2000/svg" xmlns:xlink="http://www.w3.org/1999/xlink" x="0px" y="0px"
	 viewBox="0 0 706.7 592.3" style="enable-background:new 0 0 706.7 592.3;" xml:space="preserve">
<style type="text/css">
	.st0{fill:#0C0C0C;}
	.st1{fill:#FFFFFF;}
	.st2{fill:url(#SVGID_1_);}
	.st3{opacity:0.14;fill:#FFFFFF;enable-background:new    ;}
</style>
<g>
	<path class="st1" d="M315.2,277.6c0-45.4,25.7-84.7,63.4-104.3c-3.7-2.5-7.6-4.6-11.6-6.4c-9.8-4.4-20.5-6.7-31.4-6.7h-43.4v27.1
		c-9.5-18-28.5-29.6-54.9-29.6c-45.8,0-82,37.6-82,101.7s36.3,101.7,82,101.7c26.4,0,45.4-11.6,54.9-29.6v23.6
		c0,27.8-13.4,33.4-29.2,33.4c-14.4,0-23.2-5.3-25.3-15.5H161c5.3,50.3,42.9,83.1,107.7,83.1c61.7,0,90.8-33.5,98.9-74.9l-20.9-23.5
		C327.1,336.7,315.2,308.5,315.2,277.6z M258.5,308.8c-14.1,0-25.7-10.6-25.7-34.1c0-23.6,12-34.2,25.7-34.2s25.7,10.6,25.7,34.2
		C284.2,298.2,272.2,308.8,258.5,308.8z"/>
	<g>
		
			<linearGradient id="SVGID_1_" gradientUnits="userSpaceOnUse" x1="432.6808" y1="1033.8149" x2="432.6808" y2="738.1149" gradientTransform="matrix(1 0 0 -1 0 1193.8298)">
			<stop  offset="0.2967" style="stop-color:#EFFF55"/>
			<stop  offset="0.3985" style="stop-color:#D8E172"/>
			<stop  offset="0.752" style="stop-color:#8C7ED5"/>
			<stop  offset="0.9105" style="stop-color:#6E56FC"/>
		</linearGradient>
		<path class="st2" d="M432.7,160c-64.9,0-117.5,52.6-117.5,117.5c0,31,12,59.1,31.5,80.1l86,98.1l86-98.1
			c19.6-21,31.5-49.2,31.5-80.1C550.2,212.6,497.6,160,432.7,160z M434.2,314.7c-17.1,0-31-18.4-31-41s13.9-41,31-41s31,18.4,31,41
			S451.4,314.7,434.2,314.7z"/>
		<path class="st1" d="M432.7,172.9c-59.8,0-104.8,38.3-104.8,101.7c0,63.3,45,101.7,104.8,101.7s104.9-38.4,104.9-101.7
			C537.5,211.3,492.5,172.9,432.7,172.9z M432.7,308.8c-14.1,0-25.7-10.6-25.7-34.1c0-23.6,12-34.2,25.7-34.2s25.7,10.6,25.7,34.2
			C458.4,298.2,446.4,308.8,432.7,308.8z"/>
	</g>
	<ellipse class="st3" cx="432.1" cy="475.1" rx="42.6" ry="3.7"/>
</g>
</svg>
